<?xml version="1.0" standalone="no"?>
<!DOCTYPE svg PUBLIC "-//W3C//DTD SVG 20010904//EN"
 "http://www.w3.org/TR/2001/REC-SVG-20010904/DTD/svg10.dtd">
<svg version="1.0" xmlns="http://www.w3.org/2000/svg"
 width="700.000000pt" height="700.000000pt" viewBox="0 0 700.000000 700.000000"
 preserveAspectRatio="xMidYMid meet">
<metadata>
Created by potrace 1.11, written by Peter Selinger 2001-2013
</metadata>
<g transform="translate(0.000000,700.000000) scale(0.100000,-0.100000)"
fill="#000000" stroke="none">
<path d="M2375 6375 c-172 -37 -340 -167 -420 -326 -19 -36 -61 -163 -64 -194
-1 -3 -1 -534 -1 -1180 l0 -1175 -118 0 -118 0 -36 48 c-95 128 -277 238 -450
272 -66 13 -391 19 -490 8 -310 -32 -561 -239 -648 -533 -23 -78 -25 -124 -25
-480 0 -314 3 -368 18 -423 74 -265 274 -463 536 -534 65 -18 109 -21 311 -22
282 -3 334 5 479 71 84 38 162 96 234 174 37 39 67 74 67 78 0 4 71 7 157 6
l157 0 12 -35 c79 -232 136 -362 229 -517 167 -282 426 -534 736 -716 53 -31
107 -60 120 -66 13 -5 58 -25 99 -44 118 -54 343 -123 465 -142 171 -26 254
-32 420 -30 174 3 252 12 418 51 435 101 824 342 1134 702 152 176 314 466
394 705 l31 92 102 3 c149 3 238 38 319 125 85 91 113 178 112 338 l-1 90 26
-6 c28 -7 56 -30 73 -60 9 -14 12 -173 13 -560 1 -483 3 -545 19 -589 43 -125
145 -208 273 -223 l42 -5 0 109 0 109 -39 17 c-72 32 -71 19 -71 609 -1 620
-2 627 -99 724 -52 51 -115 83 -180 91 -28 3 -51 9 -52 12 0 3 -2 53 -4 110
-3 111 -17 175 -49 231 -70 123 -180 193 -324 206 -37 4 -68 7 -69 8 -2 1 -4
540 -5 1197 l-3 1194 -22 65 c-59 173 -195 318 -361 385 -74 30 -119 38 -222
40 -274 4 -520 -188 -590 -461 -18 -71 -20 -112 -20 -486 0 -224 -3 -408 -6
-408 -3 0 -24 13 -47 28 -248 167 -563 136 -773 -76 l-63 -63 -69 68 c-88 87
-209 151 -327 171 -150 26 -327 -16 -454 -108 l-41 -30 -1 412 c-1 445 0 432
-29 528 -59 198 -254 377 -451 415 -67 13 -195 13 -254 0z"/>
</g>
</svg>
